<svg xmlns="http://www.w3.org/2000/svg" viewBox="0 0 920 520" font-family="Menlo, Monaco, 'Courier New', monospace" font-size="13">
  <!-- Background -->
  <rect width="920" height="520" rx="8" fill="#1e1e2e"/>

  <!-- Title bar dots -->
  <circle cx="20" cy="14" r="5" fill="#ff5f57"/>
  <circle cx="36" cy="14" r="5" fill="#febc2e"/>
  <circle cx="52" cy="14" r="5" fill="#28c840"/>
  <text x="420" y="18" fill="#6c7086" text-anchor="middle" font-size="11">rewind inspect latest</text>

  <!-- Header bar -->
  <rect x="8" y="30" width="904" height="28" rx="3" fill="none" stroke="#45475a" stroke-width="1"/>
  <text x="16" y="49" fill="#89dceb" font-weight="bold">⏪ REWIND</text>
  <text x="115" y="49" fill="#45475a">│</text>
  <text x="125" y="49" fill="#cdd6f4" font-weight="bold">research-agent-demo</text>
  <text x="310" y="49" fill="#45475a">│</text>
  <text x="320" y="49" fill="#f9e2af">5 steps</text>
  <text x="390" y="49" fill="#45475a">│</text>
  <text x="400" y="49" fill="#89b4fa">1231 tokens</text>
  <text x="500" y="49" fill="#45475a">│</text>
  <text x="510" y="49" fill="#f38ba8" font-weight="bold">1 errors</text>

  <!-- Left panel: Timeline -->
  <rect x="8" y="62" width="310" height="420" rx="3" fill="none" stroke="#89dceb" stroke-width="1"/>
  <text x="16" y="78" fill="#89dceb" font-weight="bold"> Timeline</text>

  <!-- Step 1 -->
  <text x="20" y="100" fill="#45475a"> ┌ </text>
  <text x="50" y="100" fill="#cdd6f4">🧠</text>
  <text x="74" y="100" fill="#cdd6f4">Step  1</text>
  <text x="145" y="100" fill="#a6e3a1">✓</text>
  <text x="165" y="100" fill="#6c7086">0.320s</text>
  <text x="230" y="100" fill="#89b4fa">184tok</text>

  <!-- Step 2 -->
  <text x="20" y="122" fill="#45475a"> ├ </text>
  <text x="50" y="122" fill="#cdd6f4">📋</text>
  <text x="74" y="122" fill="#cdd6f4">Step  2</text>
  <text x="145" y="122" fill="#a6e3a1">✓</text>
  <text x="165" y="122" fill="#6c7086">0.045s</text>
  <text x="230" y="122" fill="#89b4fa">0tok</text>

  <!-- Step 3 -->
  <text x="20" y="144" fill="#45475a"> ├ </text>
  <text x="50" y="144" fill="#cdd6f4">🧠</text>
  <text x="74" y="144" fill="#cdd6f4">Step  3</text>
  <text x="145" y="144" fill="#a6e3a1">✓</text>
  <text x="165" y="144" fill="#6c7086">0.890s</text>
  <text x="230" y="144" fill="#89b4fa">347tok</text>

  <!-- Step 4 -->
  <text x="20" y="166" fill="#45475a"> ├ </text>
  <text x="50" y="166" fill="#cdd6f4">📋</text>
  <text x="74" y="166" fill="#cdd6f4">Step  4</text>
  <text x="145" y="166" fill="#a6e3a1">✓</text>
  <text x="165" y="166" fill="#6c7086">0.038s</text>
  <text x="230" y="166" fill="#89b4fa">0tok</text>

  <!-- Step 5 (selected, error) -->
  <rect x="12" y="175" width="300" height="20" rx="2" fill="#313244"/>
  <text x="16" y="190" fill="#89dceb" font-weight="bold">▶</text>
  <text x="30" y="190" fill="#45475a"> └ </text>
  <text x="50" y="190" fill="#cdd6f4">🧠</text>
  <text x="74" y="190" fill="#89dceb" font-weight="bold">Step  5</text>
  <text x="145" y="190" fill="#f38ba8" font-weight="bold">✗</text>
  <text x="165" y="190" fill="#6c7086">1.450s</text>
  <text x="230" y="190" fill="#89b4fa">700tok</text>

  <!-- Right panel: Step Detail -->
  <rect x="322" y="62" width="590" height="420" rx="3" fill="none" stroke="#45475a" stroke-width="1"/>

  <!-- Step info bar -->
  <rect x="326" y="66" width="582" height="44" rx="2" fill="none" stroke="#45475a" stroke-width="1"/>
  <text x="334" y="83" fill="#cdd6f4"> 🧠</text>
  <text x="358" y="83" fill="#cdd6f4" font-weight="bold">LLM Call</text>
  <text x="430" y="83" fill="#45475a">│</text>
  <text x="440" y="83" fill="#f38ba8" font-weight="bold">error</text>
  <text x="485" y="83" fill="#45475a">│</text>
  <text x="495" y="83" fill="#cba6f7">gpt-4o</text>
  <text x="334" y="102" fill="#89b4fa"> ↓520tok ↑180tok</text>
  <text x="480" y="102" fill="#45475a">│</text>
  <text x="490" y="102" fill="#f9e2af">1450ms</text>

  <!-- Request panel -->
  <rect x="326" y="114" width="582" height="155" rx="2" fill="none" stroke="#45475a" stroke-width="1"/>
  <text x="334" y="131" fill="#f9e2af" font-weight="bold"> Request / Context Window</text>

  <text x="334" y="152" fill="#6c7086">model: </text><text x="385" y="152" fill="#cba6f7">gpt-4o</text>
  <text x="334" y="168" fill="#6c7086">─── Messages (6) ───</text>
  <text x="334" y="186" fill="#cba6f7" font-weight="bold">[system]</text>
  <text x="342" y="202" fill="#cdd6f4">You are a research assistant...</text>
  <text x="334" y="220" fill="#89dceb" font-weight="bold">[user]</text>
  <text x="342" y="236" fill="#cdd6f4">What is the current population of Tokyo?</text>
  <text x="334" y="254" fill="#f9e2af" font-weight="bold">[tool]</text>
  <text x="342" y="264" fill="#f38ba8">ERROR: Search API rate limited. Cached...</text>

  <!-- Response panel -->
  <rect x="326" y="273" width="582" height="205" rx="2" fill="none" stroke="#45475a" stroke-width="1"/>
  <text x="334" y="290" fill="#a6e3a1" font-weight="bold"> Response</text>

  <text x="334" y="312" fill="#a6e3a1" font-weight="bold">[assistant]</text>
  <text x="342" y="330" fill="#cdd6f4">  # Tokyo Population Analysis</text>
  <text x="342" y="348" fill="#cdd6f4">  ## Current Population</text>
  <text x="342" y="366" fill="#f38ba8">  Tokyo's 23 special wards currently</text>
  <text x="342" y="384" fill="#f38ba8">  have a population of **14.2 million**</text>
  <text x="342" y="402" fill="#cdd6f4">  ## Decade Trend (2014-2024)</text>
  <text x="342" y="420" fill="#f38ba8">  steady, uninterrupted growth</text>
  <text x="342" y="440" fill="#6c7086">  ...</text>

  <text x="342" y="468" fill="#89b4fa">  tokens: 520↓ 180↑ = 700 total</text>

  <!-- Footer -->
  <rect x="8" y="486" width="904" height="26" rx="3" fill="none" stroke="#45475a" stroke-width="1"/>
  <text x="16" y="504" fill="#89dceb" font-weight="bold"> ↑↓/jk </text>
  <text x="80" y="504" fill="#6c7086">Navigate  </text>
  <text x="155" y="504" fill="#89dceb" font-weight="bold">Tab </text>
  <text x="185" y="504" fill="#6c7086">Switch panel  </text>
  <text x="295" y="504" fill="#89dceb" font-weight="bold">q </text>
  <text x="310" y="504" fill="#6c7086">Quit</text>
  <text x="370" y="504" fill="#45475a">│</text>
  <text x="380" y="504" fill="#f9e2af">Step 5/5</text>
</svg>
